<svg width="25" height="25" viewBox="0 0 25 25" fill="none" xmlns="http://www.w3.org/2000/svg">
<path d="M3.5 17.96V21C3.5 21.28 3.72 21.5 4 21.5H7.04C7.17 21.5 7.3 21.45 7.39 21.35L18.31 10.44L14.56 6.69L3.65 17.6C3.55 17.7 3.5 17.82 3.5 17.96ZM21.21 7.54C21.3027 7.44749 21.3762 7.3376 21.4264 7.21663C21.4766 7.09565 21.5024 6.96597 21.5024 6.835C21.5024 6.70403 21.4766 6.57435 21.4264 6.45338C21.3762 6.33241 21.3027 6.22252 21.21 6.13L18.87 3.79C18.7775 3.6973 18.6676 3.62375 18.5466 3.57357C18.4257 3.52339 18.296 3.49756 18.165 3.49756C18.034 3.49756 17.9043 3.52339 17.7834 3.57357C17.6624 3.62375 17.5525 3.6973 17.46 3.79L15.63 5.62L19.38 9.37L21.21 7.54Z" fill="#414141"/>
</svg>
