<svg width="256" height="256" viewBox="0 0 256 256" fill="none" xmlns="http://www.w3.org/2000/svg">
<rect width="256" height="256" fill="white"/>
<path d="M220 128C220 129.061 219.579 130.078 218.828 130.828C218.078 131.579 217.061 132 216 132H132V216C132 217.061 131.579 218.078 130.828 218.828C130.078 219.579 129.061 220 128 220C126.939 220 125.922 219.579 125.172 218.828C124.421 218.078 124 217.061 124 216V132H40C38.9391 132 37.9217 131.579 37.1716 130.828C36.4214 130.078 36 129.061 36 128C36 126.939 36.4214 125.922 37.1716 125.172C37.9217 124.421 38.9391 124 40 124H124V40C124 38.9391 124.421 37.9217 125.172 37.1716C125.922 36.4214 126.939 36 128 36C129.061 36 130.078 36.4214 130.828 37.1716C131.579 37.9217 132 38.9391 132 40V124H216C217.061 124 218.078 124.421 218.828 125.172C219.579 125.922 220 126.939 220 128Z" fill="#EFEEE9"/>
</svg>
